# xmcd
#
# Track frame offsets:
#	150
#	16340
#	37948
#	67362
#	91928
#	123926
#	147656
#	175474
#	191416
#	210242
#	229588
#	254241
#
# Disc length: 3708 seconds
#
# Revision: 1
# Processed by: cddbd v1.4PL0 Copyright (c) Steve Scherf et al.
# Submitted via: EasyCDDAExtractor 5.1.0
#
DISCID=ac0e7a0c
DTITLE=Ruud Cooty - Aftermath
DYEAR=2002
DGENRE=
TTITLE0=Feel no more
TTITLE1=Dynamite in jeans
TTITLE2=Tell me why
TTITLE3=Beggars and thieves
TTITLE4=Crying through another heartbreak
TTITLE5=Trouble
TTITLE6=Aftermath
TTITLE7=Six foot, blonde and blue eyes
TTITLE8=Red, white and blues
TTITLE9=Shoot'em up
TTITLE10=All about you
TTITLE11=Deep blue horizon
EXTD=
EXTT0=
EXTT1=
EXTT2=
EXTT3=
EXTT4=
EXTT5=
EXTT6=
EXTT7=
EXTT8=
EXTT9=
EXTT10=
EXTT11=
PLAYORDER=
